<?xml version="1.0" encoding="UTF-8"?><svg id="Layer_2" xmlns="http://www.w3.org/2000/svg" viewBox="0 0 117.15 183.19"><defs><style>.cls-1{fill:#9acf8e;}</style></defs><g id="Layer_1-2"><g id="hotel"><g><polygon class="cls-1" points="17.43 0 20.09 5.38 26.03 6.25 21.73 10.43 22.74 16.35 17.43 13.56 12.12 16.35 13.13 10.43 8.84 6.25 14.78 5.38 17.43 0"/><polygon class="cls-1" points="38 0 40.66 5.38 46.6 6.25 42.3 10.43 43.32 16.35 38 13.56 32.69 16.35 33.71 10.43 29.41 6.25 35.35 5.38 38 0"/><polygon class="cls-1" points="58.58 0 61.23 5.38 67.17 6.25 62.87 10.43 63.89 16.35 58.58 13.56 53.26 16.35 54.28 10.43 49.98 6.25 55.92 5.38 58.58 0"/><polygon class="cls-1" points="79.15 0 81.8 5.38 87.74 6.25 83.45 10.43 84.46 16.35 79.15 13.56 73.84 16.35 74.85 10.43 70.55 6.25 76.49 5.38 79.15 0"/><polygon class="cls-1" points="99.72 0 102.38 5.38 108.32 6.25 104.02 10.43 105.03 16.35 99.72 13.56 94.41 16.35 95.42 10.43 91.12 6.25 97.06 5.38 99.72 0"/></g><path class="cls-1" d="M113.38,174.66h-5.44V56.24c0-4.43-3.59-8.02-8.02-8.02H17.24c-4.43,0-8.02,3.59-8.02,8.02v118.42H3.78c-2.09,0-3.78,1.69-3.78,3.78v.98c0,2.09,1.69,3.78,3.78,3.78H113.38c2.09,0,3.78-1.69,3.78-3.78v-.98c0-2.09-1.69-3.78-3.78-3.78ZM78.6,56.24h17.18c1.03,0,1.86,.83,1.86,1.86v17.18c0,1.03-.83,1.86-1.86,1.86h-17.18c-1.03,0-1.86-.83-1.86-1.86v-17.18c0-1.03,.83-1.86,1.86-1.86Zm0,28.42h17.18c1.03,0,1.86,.83,1.86,1.86v17.18c0,1.03-.83,1.86-1.86,1.86h-17.18c-1.03,0-1.86-.83-1.86-1.86v-17.18c0-1.03,.83-1.86,1.86-1.86Zm0,28.43h17.18c1.03,0,1.86,.83,1.86,1.86v17.18c0,1.03-.83,1.86-1.86,1.86h-17.18c-1.03,0-1.86-.83-1.86-1.86v-17.18c0-1.03,.83-1.86,1.86-1.86Zm-28.62-56.85h17.18c1.03,0,1.86,.83,1.86,1.86v17.18c0,1.03-.83,1.86-1.86,1.86h-17.18c-1.03,0-1.86-.83-1.86-1.86v-17.18c0-1.03,.83-1.86,1.86-1.86Zm0,28.42h17.18c1.03,0,1.86,.83,1.86,1.86v17.18c0,1.03-.83,1.86-1.86,1.86h-17.18c-1.03,0-1.86-.83-1.86-1.86v-17.18c0-1.03,.83-1.86,1.86-1.86Zm0,28.43h17.18c1.03,0,1.86,.83,1.86,1.86v17.18c0,1.03-.83,1.86-1.86,1.86h-17.18c-1.03,0-1.86-.83-1.86-1.86v-17.18c0-1.03,.83-1.86,1.86-1.86ZM21.37,56.24h17.18c1.03,0,1.86,.83,1.86,1.86v17.18c0,1.03-.83,1.86-1.86,1.86H21.37c-1.03,0-1.86-.83-1.86-1.86v-17.18c0-1.03,.83-1.86,1.86-1.86Zm0,28.42h17.18c1.03,0,1.86,.83,1.86,1.86v17.18c0,1.03-.83,1.86-1.86,1.86H21.37c-1.03,0-1.86-.83-1.86-1.86v-17.18c0-1.03,.83-1.86,1.86-1.86Zm0,28.43h17.18c1.03,0,1.86,.83,1.86,1.86v17.18c0,1.03-.83,1.86-1.86,1.86H21.37c-1.03,0-1.86-.83-1.86-1.86v-17.18c0-1.03,.83-1.86,1.86-1.86Zm8.69,50.95h-11.78c-1.11,0-2-.9-2-2v-11.78c0-1.11,.9-2,2-2h11.78c1.11,0,2,.9,2,2v11.78c0,1.11-.9,2-2,2Zm9.15-15.78h17.53v28.5h-17.53v-28.5Zm38.72,28.5h-17.53v-28.5h17.53v28.5Zm20.94-12.72h-11.78c-1.11,0-2-.9-2-2v-11.78c0-1.11,.9-2,2-2h11.78c1.11,0,2,.9,2,2v11.78c0,1.11-.9,2-2,2Z"/><path class="cls-1" d="M21.95,44.69V28.47c0-1.72,1.4-3.12,3.12-3.12H92.08c1.72,0,3.12,1.4,3.12,3.12v16.22h4.89V28.47c0-4.41-3.59-8-8-8H25.07c-4.41,0-8,3.59-8,8v16.22h4.89Z"/><g><path class="cls-1" d="M27.68,43.18v-13.74h1.82v5.64h7.14v-5.64h1.82v13.74h-1.82v-6.48h-7.14v6.48h-1.82Z"/><path class="cls-1" d="M40.94,36.48c0-2.28,.61-4.07,1.84-5.36,1.23-1.29,2.81-1.94,4.74-1.94,1.27,0,2.41,.3,3.43,.91,1.02,.61,1.8,1.45,2.33,2.54,.53,1.08,.8,2.31,.8,3.69s-.28,2.64-.84,3.74c-.56,1.1-1.36,1.93-2.39,2.5-1.03,.57-2.14,.85-3.34,.85-1.29,0-2.45-.31-3.47-.94-1.02-.62-1.79-1.48-2.32-2.56-.53-1.08-.79-2.23-.79-3.43Zm1.88,.03c0,1.66,.45,2.96,1.34,3.91,.89,.95,2.01,1.43,3.35,1.43s2.5-.48,3.38-1.44c.88-.96,1.33-2.33,1.33-4.1,0-1.12-.19-2.1-.57-2.93-.38-.83-.93-1.48-1.66-1.94-.73-.46-1.55-.69-2.45-.69-1.29,0-2.4,.44-3.32,1.33-.93,.88-1.39,2.36-1.39,4.43Z"/><path class="cls-1" d="M59.92,43.18v-12.12h-4.53v-1.62h10.89v1.62h-4.55v12.12h-1.82Z"/><path class="cls-1" d="M68.19,43.18v-13.74h9.94v1.62h-8.12v4.21h7.6v1.61h-7.6v4.68h8.44v1.62h-10.26Z"/><path class="cls-1" d="M80.89,43.18v-13.74h1.82v12.12h6.77v1.62h-8.59Z"/></g></g></g></svg>