<?xml version="1.0" encoding="UTF-8"?><svg id="Layer_2" xmlns="http://www.w3.org/2000/svg" viewBox="0 0 185.83 160.05"><defs><style>.cls-1{fill:none;stroke:#e17753;stroke-linecap:round;stroke-linejoin:round;stroke-width:3.3px;}</style></defs><g id="Layer_1-2"><g id="gardens"><g><g><path class="cls-1" d="M132.58,8.29c3.23-3.01,5.8-2.94,8.08-2.24,1.86-2.93,5.12-4.89,8.85-4.89,4.68,0,8.64,3.07,9.98,7.31,1.86-.6,3.96-.68,6.5,1.42,1.5,1.23,2.58,2.96,2.68,4.89,.21,4.06-3.02,7.42-7.04,7.42h-23.38c-4.65,0-8.4-3.83-8.27-8.5,.06-2.07,1.09-4,2.6-5.41Z"/><path class="cls-1" d="M124.84,17.66c-3.98,2.53-6.62,6.98-6.62,12.05,0,7.88,6.39,14.27,14.27,14.27s14.27-6.39,14.27-14.27c0-.73-.05-1.45-.16-2.15"/><line class="cls-1" x1="153.27" y1="29.6" x2="160.67" y2="29.6"/><line class="cls-1" x1="98.5" y1="29.6" x2="111.82" y2="29.6"/><line class="cls-1" x1="132.54" y1="8.29" x2="132.54"/><line class="cls-1" x1="132.54" y1="66.61" x2="132.54" y2="50.33"/><line class="cls-1" x1="111.56" y1="50.11" x2="117.5" y2="44.17"/><line class="cls-1" x1="117.5" y1="14.5" x2="111.56" y2="8.57"/><line class="cls-1" x1="158.3" y1="55.3" x2="147.17" y2="44.17"/></g><g><line class="cls-1" x1="43.73" y1="58.4" x2="43.73" y2="78.45"/><line class="cls-1" x1="50.7" y1="60.4" x2="51.56" y2="76.53"/><line class="cls-1" x1="66.93" y1="60.61" x2="51.8" y2="76.95"/><path class="cls-1" d="M72.69,61.82l-4.6,8.4c-1.93,3.51-3.63,7.13-5.11,10.83"/><line class="cls-1" x1="43.14" y1="77.93" x2="33.32" y2="63.91"/><path class="cls-1" d="M24.99,65.98l2.41,4.48c7.8,14.47,11.88,30.66,11.88,47.1v24.55"/><path class="cls-1" d="M9.73,34.38c-.44,1.22-.68,2.54-.68,3.92,0,.2,.02,.4,.03,.6-5.09,.48-9.08,4.76-9.08,9.97,0,5.53,4.49,10.02,10.02,10.02,1.39,0,2.72-.29,3.92-.8,2.11,4.65,6.78,7.9,12.22,7.9,6.89,0,12.55-5.19,13.32-11.87,2.32,3.76,6.47,6.28,11.22,6.28s8.93-2.54,11.24-6.32c1.07,4.46,5.07,7.79,9.86,7.79,3.9,0,7.28-2.2,8.98-5.42,1.1,.56,2.32,.9,3.63,.9,4.47,0,8.09-3.62,8.09-8.09,0-3.44-2.16-6.36-5.18-7.53,.42-1.11,.66-2.32,.66-3.58,0-5.61-4.54-10.15-10.15-10.15-2.61,0-4.99,.99-6.78,2.62-1.8-1.62-4.17-2.62-6.78-2.62-2.4,0-4.6,.84-6.34,2.23-.2-3.83-3.35-6.88-7.23-6.88s-7.27,3.25-7.27,7.27c0,.04,0,.07,.01,.1-1.43-.77-3.07-1.21-4.8-1.21-3.14,0-5.94,1.43-7.8,3.66-1.89-3.77-5.78-6.37-10.29-6.37"/><path class="cls-1" d="M15.56,27.93c-1.06,.51-2.03,1.18-2.88,1.98"/><path class="cls-1" d="M82.4,41.41c.64-.16,1.32-.25,2.01-.25,4.47,0,8.09,3.62,8.09,8.09s-3.62,8.09-8.09,8.09"/><path class="cls-1" d="M26.16,65.99c-2.97,0-5.71-.96-7.93-2.59-3.33-2.44-5.49-6.38-5.49-10.82"/></g><g><g><g><path class="cls-1" d="M185.83,134.7H48.17v-2.39c0-5.22,4.23-9.45,9.45-9.45h118.77c5.22,0,9.45,4.23,9.45,9.45v2.39Z"/><line class="cls-1" x1="62.97" y1="134.7" x2="62.97" y2="159.86"/><line class="cls-1" x1="71.86" y1="134.7" x2="71.86" y2="160.05"/><line class="cls-1" x1="160.67" y1="152.46" x2="160.67" y2="159.86"/><line class="cls-1" x1="160.67" y1="134.7" x2="160.67" y2="146.54"/><line class="cls-1" x1="169.55" y1="134.7" x2="169.55" y2="159.86"/><line class="cls-1" x1="82.22" y1="115.46" x2="82.22" y2="122.86"/><line class="cls-1" x1="82.22" y1="97.69" x2="82.22" y2="105.1"/><path class="cls-1" d="M68.9,87.33v-4.16c0-1.79,1.45-3.24,3.24-3.24h6.84c1.79,0,3.24,1.45,3.24,3.24v4.16"/><line class="cls-1" x1="68.9" y1="105.1" x2="68.9" y2="97.69"/><line class="cls-1" x1="68.9" y1="122.86" x2="68.9" y2="115.46"/><line class="cls-1" x1="163.63" y1="115.46" x2="163.63" y2="122.86"/><line class="cls-1" x1="163.63" y1="97.69" x2="163.63" y2="105.1"/><path class="cls-1" d="M150.31,87.33v-4.16c0-1.79,1.45-3.24,3.24-3.24h6.84c1.79,0,3.24,1.45,3.24,3.24v4.16"/><line class="cls-1" x1="150.31" y1="105.1" x2="150.31" y2="97.69"/><line class="cls-1" x1="150.31" y1="122.86" x2="150.31" y2="115.46"/><path class="cls-1" d="M128.1,87.33h46.52c1.28,0,2.33,1.04,2.33,2.33v5.71c0,1.28-1.04,2.33-2.33,2.33H59.38c-1.28,0-2.33-1.04-2.33-2.33v-5.71c0-1.28,1.04-2.33,2.33-2.33h30.24"/><line class="cls-1" x1="95.54" y1="87.33" x2="120.7" y2="87.33"/><rect class="cls-1" x="57.05" y="105.1" width="119.9" height="10.36" rx="4.6" ry="4.6"/></g><line class="cls-1" x1="128.1" y1="159.86" x2="182.87" y2="159.86"/><line class="cls-1" x1="110.34" y1="159.86" x2="122.18" y2="159.86"/></g><line class="cls-1" x1="55.57" y1="159.86" x2="104.42" y2="159.86"/></g><line class="cls-1" x1="15.61" y1="142.1" x2="6.73" y2="142.1"/><line class="cls-1" x1="54.09" y1="142.1" x2="23.01" y2="142.1"/></g></g></g></svg>