<?xml version="1.0" encoding="UTF-8"?><svg id="Layer_2" xmlns="http://www.w3.org/2000/svg" viewBox="0 0 154.86 157.98"><defs><style>.cls-1{fill:#ffc953;fill-rule:evenodd;}</style></defs><g id="Layer_1-2"><path id="transports" class="cls-1" d="M27.73,2.04C44.36,.68,60.93,0,77.43,0c16.51,0,33.07,.68,49.7,2.04,7.32,.6,13.35,6.01,13.35,13.35v27.28l7.23,.3c3.66,.15,6.52,2.17,7.06,5.45h.05v.34c.06,.52,.06,1.08,0,1.66v20.07c0,1.94-1.59,3.52-3.52,3.52h-3.89c-1.94,0-3.52-1.58-3.52-3.52v-20.2c-.43-.7-1.03-1.17-1.93-1.17h-1.47v94.99c0,2.86-2.34,5.19-5.19,5.19h-.87v7.03c0,.92-.75,1.67-1.67,1.67h-15.57c-.92,0-1.67-.75-1.67-1.67v-7.03H39.35v7.03c0,.92-.75,1.67-1.67,1.67h-15.57c-.92,0-1.67-.75-1.67-1.67v-7.03h-.87c-2.86,0-5.19-2.34-5.19-5.19V49.11h-1.47c-.9,0-1.5,.47-1.93,1.17v20.2c0,1.94-1.59,3.52-3.52,3.52H3.57c-1.94,0-3.52-1.58-3.52-3.52v-20.07c-.06-.58-.06-1.14,0-1.66v-.34h.05c.54-3.28,3.4-5.3,7.06-5.45l7.23-.3V15.39c0-7.34,6.03-12.76,13.35-13.35h0Zm49.7,5.49h-27.81c-1.12,0-2.04,.92-2.04,2.04v13.53c0,1.12,.92,2.04,2.04,2.04h55.62c1.12,0,2.04-.92,2.04-2.04V9.56c0-1.12-.92-2.04-2.04-2.04h-27.81Zm0,22.51H25.13c-2.65,0-4.82,2.17-4.82,4.82v63.8c0,2.65,2.17,4.82,4.82,4.82h104.59c2.65,0,4.82-2.17,4.82-4.82V34.85c0-2.65-2.17-4.82-4.82-4.82h-52.3Zm0,103.74h-16.22c-.92,0-1.67,.75-1.67,1.67v4.26c0,.92,.75,1.67,1.67,1.67h32.44c.92,0,1.67-.75,1.67-1.67v-4.26c0-.92-.75-1.67-1.67-1.67h-16.22Zm43.46-15.85c-3.58,0-6.49,2.91-6.49,6.49s2.91,6.49,6.49,6.49,6.49-2.91,6.49-6.49-2.91-6.49-6.49-6.49h0Zm-86.92,0c-3.58,0-6.49,2.91-6.49,6.49s2.91,6.49,6.49,6.49,6.49-2.91,6.49-6.49-2.91-6.49-6.49-6.49Z"/></g></svg>