<svg xmlns="http://www.w3.org/2000/svg" viewBox="0 0 413.81 453.98"><defs><style>.cls-1{fill:#2a4c25;}</style></defs><g id="Layer_2" data-name="Layer 2"><g id="Layer_1-2" data-name="Layer 1"><path class="cls-1" d="M90.36,416.78a4,4,0,0,1-4-4c-.08-12.44-3.48-16.79-10.91-26.32-.93-1.19-1.91-2.44-2.94-3.79L26,321.94A131.92,131.92,0,0,1,0,243.05V141.6a27.13,27.13,0,1,1,54.25.18l-.53,79.79a73.41,73.41,0,0,0,3.15,21.79,26.93,26.93,0,0,1,4.71-8.87,29,29,0,0,1,44.1-1.52l53,47.35a76.89,76.89,0,0,1,25.68,57.32V412.8a4,4,0,0,1-8,0V337.64a68.93,68.93,0,0,0-23-51.37l-53.22-47.49a3,3,0,0,1-.31-.31,21,21,0,0,0-32.11,1c-5.48,6.81-5.63,16.8-.79,24.65.8,1.13,1.62,2.24,2.48,3.33l.08.08,43.3,48.18a4,4,0,0,1-2.14,6.56l-.18,0a4,4,0,0,1-3.79-1.24l-40.2-44.73q-1.65-1.85-3.18-3.78a31.26,31.26,0,0,1-3-4,81,81,0,0,1-14.64-47.08l.52-79.79a19.15,19.15,0,0,0-19.15-19.28A19.17,19.17,0,0,0,8,141.6V243.05a124,124,0,0,0,24.38,74.1l46.5,60.71c1,1.33,2,2.56,2.89,3.73,7.8,10,12.5,16,12.6,31.18a4,4,0,0,1-4,4Z"/><path class="cls-1" d="M185.38,454H83.17A10.19,10.19,0,0,1,73,443.8V419a10.2,10.2,0,0,1,10.19-10.18H185.38A10.2,10.2,0,0,1,195.56,419V443.8A10.19,10.19,0,0,1,185.38,454ZM83.17,416.78A2.22,2.22,0,0,0,81,419V443.8A2.21,2.21,0,0,0,83.17,446H185.38a2.21,2.21,0,0,0,2.2-2.21V419a2.22,2.22,0,0,0-2.2-2.21Z"/><path class="cls-1" d="M323.45,416.78h0a4,4,0,0,1-4-4c.1-15.16,4.8-21.19,12.6-31.18.91-1.17,1.87-2.4,2.89-3.73l46.54-60.77a123.93,123.93,0,0,0,24.34-74V141.6a19.15,19.15,0,0,0-32.74-13.49,19,19,0,0,0-5.56,13.62l.52,79.79a81,81,0,0,1-14.64,47.07,31.44,31.44,0,0,1-3,4q-1.53,1.92-3.19,3.77l-40.19,44.73a4,4,0,0,1-3.79,1.24l-.18,0a4,4,0,0,1-2.14-6.56l43.3-48.18.07-.08c.86-1.09,1.69-2.2,2.49-3.34,4.84-7.84,4.69-17.83-.79-24.64a21,21,0,0,0-32.11-1,3,3,0,0,1-.31.31l-53.22,47.49a68.93,68.93,0,0,0-23,51.37V412.8a4,4,0,0,1-8,0V337.64a76.92,76.92,0,0,1,25.67-57.32L308.13,233a29,29,0,0,1,44.1,1.52,26.93,26.93,0,0,1,4.71,8.87,73.41,73.41,0,0,0,3.15-21.79l-.53-79.79a27.13,27.13,0,1,1,54.25-.18V243.05a131.89,131.89,0,0,1-25.94,78.84l-46.58,60.82c-1,1.35-2,2.6-2.94,3.79-7.43,9.53-10.83,13.88-10.91,26.32A4,4,0,0,1,323.45,416.78Z"/><path class="cls-1" d="M330.64,454H228.43a10.19,10.19,0,0,1-10.18-10.18V419a10.2,10.2,0,0,1,10.18-10.18H330.64A10.19,10.19,0,0,1,340.82,419V443.8A10.18,10.18,0,0,1,330.64,454Zm-102.21-37.2a2.22,2.22,0,0,0-2.21,2.21V443.8a2.22,2.22,0,0,0,2.21,2.21H330.64a2.21,2.21,0,0,0,2.21-2.21V419a2.22,2.22,0,0,0-2.21-2.21Z"/><path class="cls-1" d="M206.9,276.4a4,4,0,0,1-2.64-1c-13.77-12.22-26.7-23.39-39.2-34.2C96.8,182.19,51.71,143.21,51.71,88c0-23.48,7.81-45.41,22-61.73A75.28,75.28,0,0,1,131.3,0c41.11,0,67,23.51,75.6,32.79C215.52,23.51,241.4,0,282.51,0a75.28,75.28,0,0,1,57.6,26.31c14.18,16.32,22,38.25,22,61.73,0,55.17-45.09,94.15-113.35,153.16-12.51,10.81-25.43,22-39.2,34.2A4,4,0,0,1,206.9,276.4ZM131.3,8C90.47,8,59.68,42.4,59.68,88c0,51.53,44,89.56,110.59,147.13,11.72,10.13,23.82,20.58,36.63,31.92,12.82-11.34,24.91-21.79,36.63-31.92,66.6-57.57,110.6-95.6,110.6-147.13C354.13,42.4,323.34,8,282.51,8c-46.1,0-72.19,33-72.45,33.35a4,4,0,0,1-3.15,1.55h0a4,4,0,0,1-3.15-1.55h0C203.49,41,177.4,8,131.3,8Z"/><path class="cls-1" d="M225.82,185.65H188a4,4,0,0,1-4-4V148.94H151.26a4,4,0,0,1-4-4V107.13a4,4,0,0,1,4-4H184V70.41a4,4,0,0,1,4-4h37.83a4,4,0,0,1,4,4v32.73h32.75a4,4,0,0,1,4,4V145a4,4,0,0,1-4,4H229.8v32.72A4,4,0,0,1,225.82,185.65Zm-33.84-8h29.85V145a4,4,0,0,1,4-4h32.74V111.11H225.82a4,4,0,0,1-4-4V74.4H192v32.73a4,4,0,0,1-4,4H155.25V141H188a4,4,0,0,1,4,4Z"/></g></g></svg>