<?xml version="1.0" encoding="UTF-8"?><svg id="Layer_2" xmlns="http://www.w3.org/2000/svg" viewBox="0 0 157.85 166.63"><defs><style>.cls-1{fill:#e7dfa8;}</style></defs><g id="Layer_1-2"><path id="mall" class="cls-1" d="M157.77,159.67l-10.14-112.92c-.28-3.08-2.86-5.45-5.96-5.45h-20.91v-9.43c0-17.58-14.3-31.87-31.87-31.87-3.56,0-6.98,.61-10.18,1.7v-.16c-3.08-.99-6.35-1.54-9.75-1.54-17.57,0-31.87,14.3-31.87,31.87v9.43H16.16c-3.1,0-5.68,2.36-5.96,5.45L.02,160.12c-.15,1.67,.41,3.33,1.54,4.57,1.13,1.24,2.74,1.95,4.42,1.95H151.87c3.31,0,5.98-2.68,5.98-5.98,0-.33-.03-.66-.08-.98ZM108.8,31.87v9.43h-39.82v-9.43c0-10.98,8.93-19.91,19.91-19.91s19.91,8.93,19.91,19.91Zm-59.75,0c0-9.07,6.1-16.72,14.4-19.12-4.02,5.33-6.43,11.94-6.43,19.12v9.43h-7.97v-9.43Zm-27.42,21.39h7.92l-9.1,101.4h-7.92L21.63,53.27Zm57.08,101.4H32.45l9.11-101.4h15.45v10.7c0,3.3,2.68,5.98,5.98,5.98s5.98-2.68,5.98-5.98v-10.7h39.82v10.7c0,3.3,2.68,5.98,5.98,5.98s5.98-2.68,5.98-5.98v-10.7h15.44l9.1,101.4H78.71Z"/></g></svg>