<?xml version="1.0" encoding="UTF-8"?><svg id="Layer_2" xmlns="http://www.w3.org/2000/svg" viewBox="0 0 150 165.88"><defs><style>.cls-1{fill:#477368;}</style></defs><g id="Layer_1-2"><g id="masjed"><path class="cls-1" d="M85.78,22.44c1.53,0,3.04-.18,4.5-.54-2.14,4-6.36,6.69-11.2,6.69-7.01,0-12.7-5.7-12.7-12.7,0-2.22,.58-4.37,1.65-6.26,2.47,7.44,9.5,12.82,17.75,12.82h0Zm7.11,35.51c7.56,3.06,16.13,6.53,23.95,16.89,7.27,9.63,10.11,18.89,8.47,27.51-2.44,12.8-14.13,20.28-14.72,20.66H39.42c-.6-.38-12.28-7.86-14.72-20.66-1.65-8.62,1.2-17.88,8.47-27.51,7.81-10.36,16.38-13.83,23.95-16.89,7.15-2.9,14.01-5.68,17.89-13.66,3.88,7.98,10.74,10.76,17.89,13.66h0Zm28.94,77.93H28.17v-6.87H121.83v6.87h0Zm22.17,24H6v-18H144v18h0ZM68.38,.54c-5.01,3.5-8,9.23-8,15.34,0,7.77,4.76,14.44,11.52,17.27-1.56,12.98-7.75,15.48-17.04,19.25-7.87,3.19-17.67,7.16-26.48,18.84-8.35,11.07-11.56,21.94-9.56,32.31,1.7,8.79,6.8,15.34,11.07,19.47h-4.71c-1.66,0-3,1.34-3,3v9.87H3c-1.66,0-3,1.34-3,3v24c0,1.66,1.34,3,3,3H147c1.66,0,3-1.34,3-3v-24c0-1.66-1.34-3-3-3h-19.17v-9.87c0-1.66-1.34-3-3-3h-4.71c4.27-4.13,9.37-10.68,11.07-19.47,2-10.38-1.21-21.25-9.56-32.31-8.81-11.68-18.61-15.65-26.48-18.84-8.94-3.62-15.01-6.08-16.84-17.83,.26,.01,.52,.02,.78,.02,10.02,0,18.22-7.83,18.68-17.83,.05-1.14-.55-2.21-1.55-2.77-1-.55-2.23-.49-3.17,.17-2.14,1.49-4.65,2.28-7.26,2.28-7.01,0-12.7-5.7-12.7-12.7,0-.19,0-.39,.01-.58,.06-1.14-.54-2.22-1.54-2.78-1-.56-2.23-.49-3.17,.16h0Z"/></g></g></svg>