<svg id="Group_389" data-name="Group 389" xmlns="http://www.w3.org/2000/svg" xmlns:xlink="http://www.w3.org/1999/xlink" width="90.584" height="72" viewBox="0 0 90.584 72">
  <defs>
    <clipPath id="clip-path">
      <rect id="Rectangle_1400" data-name="Rectangle 1400" width="90.584" height="72" fill="none"/>
    </clipPath>
  </defs>
  <g id="Group_388" data-name="Group 388" clip-path="url(#clip-path)">
    <path id="Path_14" data-name="Path 14" d="M330.83,39.591a28.927,28.927,0,0,0-8.9,1.455c-.167.057-.34.124-.511.186-.385,1.645-.708,3.617-1.066,5.78a21.331,21.331,0,0,1,6.756-2.492c.346-.075.686-.136,1.027-.19,1.469-3.1,2.795-4.656,2.693-4.739" transform="translate(-255.058 -31.521)" fill="#92c479"/>
    <path id="Path_15" data-name="Path 15" d="M299.544,16.719a27.8,27.8,0,0,0-8.408,2.94c-.22.124-.441.254-.657.383-.022,2.041.136,4.5.272,7.215a20.737,20.737,0,0,1,6.882-4.235c.007-.014.009-.038.016-.048a44.926,44.926,0,0,1,1.9-6.255" transform="translate(-231.27 -13.311)" fill="#92c479"/>
    <path id="Path_16" data-name="Path 16" d="M236.542,0a26.673,26.673,0,0,0-7.595,4.368,19.131,19.131,0,0,0-6.7,14.016c-.275,6.178.448,12.063.375,16.141a44.027,44.027,0,0,1-.517,6.488c-.012,0,.016-.022.077-.048-.067.012-.095.023-.085.03-.01-.007-.008-.027,0-.057a35.624,35.624,0,0,0,1.9-6.194c.946-3.979,1.494-9.863,3.087-15.851a20.141,20.141,0,0,1,8.946-12.162V6.486A44.378,44.378,0,0,1,236.542,0" transform="translate(-176.818)" fill="#92c479"/>
    <path id="Path_17" data-name="Path 17" d="M355.5,61.746a30.965,30.965,0,0,0-8.034,0c-.156.342-.319.686-.48,1.061-.756,1.607-1.512,3.571-2.354,5.73a22.279,22.279,0,0,1,6.59-1.306c.047-.072.093-.145.14-.21a48.518,48.518,0,0,1,4.139-5.275" transform="translate(-274.388 -48.937)" fill="#92c479"/>
    <path id="Path_18" data-name="Path 18" d="M259.329,118.46c-.175-.029-.351-.054-.534-.082-3.082,2.949-6.891,7.677-11.667,12.019a23.325,23.325,0,0,1-15.453,6.2,27.443,27.443,0,0,1-8.8-1.371,26.9,26.9,0,0,0,8.4,2.847,24.212,24.212,0,0,0,16.514-3.46c5.626-3.451,10.375-7.45,14.027-9.8a54.959,54.959,0,0,1,6.047-3.463,28.713,28.713,0,0,0-8.534-2.89" transform="translate(-177.445 -94.25)" fill="#92c479"/>
    <path id="Path_19" data-name="Path 19" d="M371.62,91.019a29.267,29.267,0,0,0-8.958-1.394c-.26,0-.521.007-.787.018-1.177,1.718-2.437,3.883-3.863,6.242a23.144,23.144,0,0,1,8.378-.4c.012-.011.018-.018.027-.027a52.162,52.162,0,0,1,5.2-4.436" transform="translate(-285.04 -71.35)" fill="#92c479"/>
    <path id="Path_20" data-name="Path 20" d="M71.833,39.591a28.927,28.927,0,0,1,8.9,1.455c.168.057.34.124.508.186.388,1.645.711,3.617,1.072,5.78a21.35,21.35,0,0,0-6.76-2.492c-.344-.075-.685-.136-1.026-.19-1.469-3.1-2.8-4.656-2.692-4.739" transform="translate(-57.187 -31.521)" fill="#92c479"/>
    <path id="Path_21" data-name="Path 21" d="M108.612,16.719a27.791,27.791,0,0,1,8.407,2.94c.221.124.443.254.661.383.019,2.041-.14,4.5-.274,7.215a20.739,20.739,0,0,0-6.887-4.235c0-.014-.005-.038-.008-.048a44.713,44.713,0,0,0-1.9-6.255" transform="translate(-86.466 -13.311)" fill="#92c479"/>
    <path id="Path_22" data-name="Path 22" d="M150.527,0a26.673,26.673,0,0,1,7.593,4.368,19.12,19.12,0,0,1,6.7,14.016c.276,6.178-.448,12.063-.373,16.141a44.4,44.4,0,0,0,.514,6.488c.014,0-.012-.022-.075-.048.068.012.093.023.083.03.01-.007.008-.027,0-.057a36.057,36.057,0,0,1-1.9-6.194c-.946-3.979-1.493-9.863-3.089-15.851a20.136,20.136,0,0,0-8.938-12.162c0-.081,0-.165,0-.246A44.5,44.5,0,0,0,150.527,0" transform="translate(-119.83)" fill="#92c479"/>
    <path id="Path_23" data-name="Path 23" d="M45.646,61.746a30.955,30.955,0,0,1,8.033,0c.159.342.318.686.477,1.061.759,1.607,1.517,3.571,2.358,5.73a22.282,22.282,0,0,0-6.591-1.306c-.045-.072-.093-.145-.14-.21a48.565,48.565,0,0,0-4.136-5.275" transform="translate(-36.339 -48.937)" fill="#92c479"/>
    <path id="Path_24" data-name="Path 24" d="M8.531,118.46c.178-.029.356-.054.539-.082,3.079,2.949,6.887,7.677,11.666,12.019a23.331,23.331,0,0,0,15.451,6.2,27.408,27.408,0,0,0,8.8-1.371,26.883,26.883,0,0,1-8.4,2.847,24.218,24.218,0,0,1-16.515-3.46c-5.624-3.451-10.375-7.45-14.026-9.8A55.282,55.282,0,0,0,0,121.35a28.691,28.691,0,0,1,8.531-2.89" transform="translate(0.001 -94.25)" fill="#92c479"/>
    <path id="Path_25" data-name="Path 25" d="M18.821,91.019a29.3,29.3,0,0,1,8.958-1.394c.26,0,.525.007.787.018,1.178,1.718,2.438,3.883,3.861,6.242a23.13,23.13,0,0,0-8.375-.4c-.009-.011-.021-.018-.029-.027a51.435,51.435,0,0,0-5.2-4.436" transform="translate(-14.984 -71.35)" fill="#92c479"/>
    <path id="Path_26" data-name="Path 26" d="M227.1,45.187c-1.6,5.988-2.143,11.87-3.089,15.853a35.282,35.282,0,0,1-1.9,6.188c0-.005.014-.011.022-.021a.228.228,0,0,1,.032-.054,34.442,34.442,0,0,0,3.136-5.681c1.767-3.736,3.524-9.4,6.342-15a21.69,21.69,0,0,1,4.676-6.232c-.136-2.713-.294-5.174-.272-7.215A20.133,20.133,0,0,0,227.1,45.187" transform="translate(-176.836 -26.294)" fill="#77b061"/>
    <path id="Path_27" data-name="Path 27" d="M291.822,51.871c.093,1.944.175,4.019.163,6.154a22.557,22.557,0,0,1,5.654-4.612c.356-2.161.679-4.133,1.066-5.78a20.8,20.8,0,0,0-6.884,4.237" transform="translate(-232.341 -37.925)" fill="#77b061"/>
    <path id="Path_28" data-name="Path 28" d="M322.635,62.841c-.339.054-.679.115-1.025.19a21.4,21.4,0,0,0-6.755,2.49c-.385,2.347-.812,4.918-1.41,7.564a23.9,23.9,0,0,1,6.357-3.454c.842-2.161,1.6-4.123,2.354-5.73.161-.374.324-.718.478-1.061" transform="translate(-249.558 -50.032)" fill="#77b061"/>
    <path id="Path_29" data-name="Path 29" d="M250.3,117.973c-1.426,2.365-3.015,4.929-4.855,7.443a22.19,22.19,0,0,1-13.785,8.806,27.523,27.523,0,0,1-8.933.184l.029.013a27.441,27.441,0,0,0,8.8,1.371,23.318,23.318,0,0,0,15.45-6.2c4.778-4.343,8.591-9.071,11.669-12.02a23.227,23.227,0,0,0-8.378.407" transform="translate(-177.333 -93.438)" fill="#77b061"/>
    <path id="Path_30" data-name="Path 30" d="M333.366,91.054c-.845,2.175-1.781,4.549-2.884,6.964a25.43,25.43,0,0,1,5.611-2.028c1.426-2.359,2.684-4.528,3.863-6.242a22.228,22.228,0,0,0-6.59,1.306" transform="translate(-263.121 -71.455)" fill="#77b061"/>
    <path id="Path_31" data-name="Path 31" d="M161.011,45.187c1.6,5.988,2.143,11.87,3.087,15.853a35.772,35.772,0,0,0,1.9,6.188c0-.005-.012-.011-.018-.021a.427.427,0,0,0-.036-.054,34.511,34.511,0,0,1-3.133-5.681c-1.762-3.736-3.527-9.4-6.343-15A21.8,21.8,0,0,0,151.8,40.24c.135-2.713.294-5.174.276-7.215a20.139,20.139,0,0,1,8.938,12.162" transform="translate(-120.857 -26.294)" fill="#77b061"/>
    <path id="Path_32" data-name="Path 32" d="M124.9,51.871c-.1,1.944-.175,4.019-.163,6.154a22.584,22.584,0,0,0-5.654-4.612c-.361-2.161-.682-4.133-1.071-5.78a20.776,20.776,0,0,1,6.887,4.237" transform="translate(-93.955 -37.925)" fill="#77b061"/>
    <path id="Path_33" data-name="Path 33" d="M85.071,62.841c.34.054.681.115,1.025.19a21.432,21.432,0,0,1,6.759,2.49c.386,2.347.813,4.918,1.407,7.564a23.86,23.86,0,0,0-6.357-3.454c-.841-2.161-1.6-4.123-2.358-5.73-.159-.374-.317-.718-.477-1.061" transform="translate(-67.731 -50.032)" fill="#77b061"/>
    <path id="Path_34" data-name="Path 34" d="M52.867,117.973c1.429,2.365,3.02,4.929,4.86,7.443a22.171,22.171,0,0,0,13.781,8.806,27.514,27.514,0,0,0,8.932.184s-.017.007-.025.013a27.442,27.442,0,0,1-8.8,1.371,23.335,23.335,0,0,1-15.451-6.2c-4.778-4.343-8.588-9.071-11.668-12.02a23.216,23.216,0,0,1,8.376.407" transform="translate(-35.423 -93.438)" fill="#77b061"/>
    <path id="Path_35" data-name="Path 35" d="M73.23,91.054c.849,2.175,1.78,4.549,2.884,6.964A25.349,25.349,0,0,0,70.5,95.99c-1.424-2.359-2.683-4.528-3.861-6.242a22.23,22.23,0,0,1,6.592,1.306" transform="translate(-53.055 -71.455)" fill="#77b061"/>
    <path id="Path_36" data-name="Path 36" d="M244.633,122.4q-.524,1.158-1.1,2.309a21.176,21.176,0,0,1-12.069,10.653,27.362,27.362,0,0,1-8.805,1.437.141.141,0,0,1,.015,0,27.347,27.347,0,0,0,8.935-.183,22.16,22.16,0,0,0,13.784-8.808c1.842-2.51,3.429-5.074,4.855-7.439a25.521,25.521,0,0,0-5.611,2.026" transform="translate(-177.273 -95.838)" fill="#65944b"/>
    <path id="Path_37" data-name="Path 37" d="M303.634,99.61c-.183.812-.382,1.636-.6,2.458a21.129,21.129,0,0,1-1.914,4.771c1.279-.876,2.609-1.761,4-2.614.658-.4,1.322-.77,1.989-1.107,1.1-2.412,2.039-4.786,2.885-6.962a23.9,23.9,0,0,0-6.357,3.454" transform="translate(-239.746 -76.557)" fill="#65944b"/>
    <path id="Path_38" data-name="Path 38" d="M288.864,80.61c-.007.839-.022,1.675-.061,2.523a20.881,20.881,0,0,1-.9,5.234c1.1-1.127,2.265-2.268,3.49-3.381.563-.511,1.132-.98,1.716-1.421.6-2.648,1.025-5.219,1.408-7.565a22.437,22.437,0,0,0-5.651,4.61" transform="translate(-229.219 -60.509)" fill="#65944b"/>
    <path id="Path_39" data-name="Path 39" d="M231.853,74.654c-2.818,5.6-4.576,11.264-6.342,15a34.387,34.387,0,0,1-3.136,5.681,35.828,35.828,0,0,0,4.084-5.16c2.387-3.438,5.108-8.776,8.862-13.895.435-.6.9-1.164,1.374-1.7.011-2.136-.072-4.21-.165-6.155a21.742,21.742,0,0,0-4.676,6.232" transform="translate(-177.049 -54.476)" fill="#65944b"/>
    <path id="Path_40" data-name="Path 40" d="M91.2,122.4c.351.772.714,1.541,1.1,2.309a21.18,21.18,0,0,0,12.07,10.653,27.357,27.357,0,0,0,8.8,1.437.107.107,0,0,0-.014,0,27.335,27.335,0,0,1-8.933-.183,22.141,22.141,0,0,1-13.78-8.808c-1.842-2.51-3.432-5.074-4.862-7.439A25.469,25.469,0,0,1,91.2,122.4" transform="translate(-68.141 -95.838)" fill="#65944b"/>
    <path id="Path_41" data-name="Path 41" d="M105.341,99.61c.184.812.382,1.636.6,2.458a21,21,0,0,0,1.914,4.771c-1.278-.876-2.611-1.761-4-2.614-.657-.4-1.322-.77-1.988-1.107-1.1-2.412-2.036-4.786-2.883-6.962a23.851,23.851,0,0,1,6.355,3.454" transform="translate(-78.81 -76.557)" fill="#65944b"/>
    <path id="Path_42" data-name="Path 42" d="M128.914,80.61c0,.839.02,1.675.057,2.523a20.62,20.62,0,0,0,.906,5.234c-1.1-1.127-2.265-2.268-3.492-3.381-.562-.511-1.134-.98-1.717-1.421-.594-2.648-1.021-5.219-1.407-7.565a22.539,22.539,0,0,1,5.654,4.61" transform="translate(-98.137 -60.509)" fill="#65944b"/>
    <path id="Path_43" data-name="Path 43" d="M155.83,74.654c2.817,5.6,4.581,11.264,6.343,15a34.584,34.584,0,0,0,3.133,5.681,35.876,35.876,0,0,1-4.08-5.16c-2.387-3.438-5.107-8.776-8.864-13.895-.436-.6-.9-1.164-1.37-1.7-.013-2.136.066-4.21.163-6.155a21.842,21.842,0,0,1,4.675,6.232" transform="translate(-120.215 -54.476)" fill="#65944b"/>
    <path id="Path_44" data-name="Path 44" d="M244.207,104.941c-.663.335-1.329.7-1.989,1.107-1.369.839-2.691,1.716-3.956,2.591a21.15,21.15,0,0,0,1.89-4.737c.219-.819.419-1.641.6-2.455l.005-.034-.025.02q-.874.659-1.716,1.428c-1.215,1.1-2.37,2.231-3.463,3.349a20.478,20.478,0,0,0,.894-5.2c.029-.587.043-1.177.054-1.765,0-.249,0-.505.007-.758v-.032l-.02.025c-.475.534-.937,1.1-1.378,1.7-3.752,5.123-6.471,10.463-8.86,13.893a35.592,35.592,0,0,1-4.082,5.162l-.014.032-.027.057.047-.043a40.294,40.294,0,0,0,5.16-4.366c2.29-2.184,4.977-5.353,8.17-8.625a18.771,18.771,0,0,1-4.7,7.756l.015.016c2.175-1.568,4.644-3.462,7.374-5.35a19.728,19.728,0,0,1-7.658,7.718,26.4,26.4,0,0,1-8.3,2.9l-.03.007.03.012,0,0h0a27.332,27.332,0,0,0,8.812-1.439,21.211,21.211,0,0,0,12.076-10.657c.385-.77.749-1.543,1.1-2.308l.014-.03Z" transform="translate(-176.854 -78.391)" fill="#4c7d2f"/>
    <path id="Path_45" data-name="Path 45" d="M113.041,104.941q1,.5,1.989,1.107c1.371.839,2.693,1.716,3.957,2.591A21.156,21.156,0,0,1,117.1,103.9c-.218-.819-.417-1.641-.6-2.455l-.007-.034.023.02c.584.439,1.159.916,1.72,1.428,1.214,1.1,2.367,2.231,3.463,3.349a20.323,20.323,0,0,1-.895-5.2c-.03-.587-.046-1.177-.053-1.765,0-.249-.005-.505-.006-.758v-.032l.019.025c.477.534.936,1.1,1.377,1.7,3.75,5.123,6.473,10.463,8.855,13.893a35.923,35.923,0,0,0,4.083,5.162l.016.032.027.057-.048-.043a40.508,40.508,0,0,1-5.158-4.366c-2.286-2.184-4.979-5.353-8.169-8.625a18.759,18.759,0,0,0,4.7,7.756l-.015.016c-2.18-1.568-4.647-3.462-7.376-5.35a19.721,19.721,0,0,0,7.658,7.718,26.406,26.406,0,0,0,8.3,2.9l.031.007-.031.012,0,0h0a27.305,27.305,0,0,1-8.806-1.439,21.19,21.19,0,0,1-12.075-10.657c-.391-.77-.754-1.543-1.1-2.308l-.014-.03Z" transform="translate(-89.977 -78.391)" fill="#4c7d2f"/>
    <path id="Path_46" data-name="Path 46" d="M230.868,144.5a18.751,18.751,0,0,0,4.723-7.808c-3.209,3.286-5.913,6.468-8.209,8.657a39.759,39.759,0,0,1-5.158,4.37.1.1,0,0,0-.012.031.022.022,0,0,0,0,.011.176.176,0,0,0-.01.02.552.552,0,0,1,.072.013h.009s0,0,.007,0h0a26.255,26.255,0,0,0,8.306-2.9,19.711,19.711,0,0,0,7.69-7.774c-2.745,1.906-5.233,3.806-7.418,5.386" transform="translate(-176.909 -108.828)" fill="#3e6629"/>
    <path id="Path_47" data-name="Path 47" d="M149.917,144.5a18.7,18.7,0,0,1-4.724-7.808c3.205,3.286,5.91,6.468,8.2,8.657a39.978,39.978,0,0,0,5.161,4.37.224.224,0,0,1,.011.031.018.018,0,0,1,.005.011.051.051,0,0,1,.007.02.43.43,0,0,0-.069.013H158.5s-.006,0-.009,0h0a26.289,26.289,0,0,1-8.307-2.9,19.719,19.719,0,0,1-7.685-7.774c2.745,1.906,5.229,3.806,7.419,5.386" transform="translate(-113.453 -108.828)" fill="#3e6629"/>
    <rect id="Rectangle_1399" data-name="Rectangle 1399" width="1.444" height="9.792" transform="translate(79.021 48.934)" fill="#253d1b"/>
    <path id="Path_48" data-name="Path 48" d="M421.179,241l-.846-.978-.842.978.842.957Z" transform="translate(-333.988 -191.096)" fill="#253d1b" fill-rule="evenodd"/>
    <path id="Path_49" data-name="Path 49" d="M361.145,241l-.845-.978-.846.978.846.957Z" transform="translate(-286.188 -191.096)" fill="#253d1b" fill-rule="evenodd"/>
    <path id="Path_50" data-name="Path 50" d="M14.358,241l-.846-.978-.846.978.846.957Z" transform="translate(-10.085 -191.096)" fill="#253d1b" fill-rule="evenodd"/>
    <path id="Path_51" data-name="Path 51" d="M4.725,241l-.845-.978L3.032,241l.848.957Z" transform="translate(-2.414 -191.096)" fill="#253d1b" fill-rule="evenodd"/>
    <path id="Path_52" data-name="Path 52" d="M46.458,246.4a2.919,2.919,0,0,0-.415-1.69,2.42,2.42,0,0,0-2.133-.978,2.589,2.589,0,0,0-2.159.978,3.237,3.237,0,0,0-.413,1.711v2.324H33.157a2.369,2.369,0,0,0,.973-2.159c0-1.958-1.434-2.741-3.155-2.741h-16l2.559-3.77H16.011l-3.4,5.01h18.63c1.09,0,2.09.478,2.09,1.715,0,.876-.376,1.828-2,1.946l-24.92,0v-6.068C3.228,243.117.7,245.72.7,250H41.518a3.067,3.067,0,0,0,.234.469,2.461,2.461,0,0,0,2.159.975,2.431,2.431,0,0,0,2.133-.975,3.074,3.074,0,0,0,.415-1.831ZM4.969,248.75H1.977v-.226a5.12,5.12,0,0,1,2.992-4.794Zm40.038.023a2.09,2.09,0,0,1-.156.946,1.125,1.125,0,0,1-1.889,0,2.052,2.052,0,0,1-.16-.946v-2.365a2.044,2.044,0,0,1,.16-.944,1.119,1.119,0,0,1,1.889,0,2.081,2.081,0,0,1,.156.944Z" transform="translate(-0.557 -191.144)" fill="#253d1b" fill-rule="evenodd"/>
    <path id="Path_53" data-name="Path 53" d="M411.42,261.007a3.458,3.458,0,0,1-.706,2.422,2.206,2.206,0,0,1-1.842.654h-5.846V262.9h6.015a1.678,1.678,0,0,0,1.267-.385,2.444,2.444,0,0,0,0-3.008,1.663,1.663,0,0,0-1.267-.38H404.92v-1.2h3.953a2.211,2.211,0,0,1,1.842.658,3.464,3.464,0,0,1,.706,2.419" transform="translate(-320.879 -205.358)" fill="#253d1b" fill-rule="evenodd"/>
    <path id="Path_54" data-name="Path 54" d="M271.337,258.582a2.223,2.223,0,0,0-1.842-.659h-3.784v1.2h3.952a1.663,1.663,0,0,1,1.263.378,2.433,2.433,0,0,1,0,3.01,1.461,1.461,0,0,1-1.263.328l-22.955-.005v-4.164h-1.453v6.91c0,.455.081,1.715-.708,1.849v.663a2.516,2.516,0,0,0,1.806-1.193,4.474,4.474,0,0,0,.351-2.27c0-.168,0-.55,0-.55H269.5a2.211,2.211,0,0,0,1.842-.654,4.482,4.482,0,0,0,0-4.841" transform="translate(-194.703 -205.352)" fill="#253d1b" fill-rule="evenodd"/>
    <path id="Path_55" data-name="Path 55" d="M8.381,314.005H.8v1.265a9.732,9.732,0,0,1,3.051-.5v7.2H5.332v-7.2a9.709,9.709,0,0,1,3.049.5Z" transform="translate(-0.636 -250.003)" fill="#253d1b" fill-rule="evenodd"/>
    <path id="Path_56" data-name="Path 56" d="M174,323.507H169.66v6.061h4.518V328.6a7.211,7.211,0,0,1-2.624.4h-.786v-2.378h2.87v-.563h-2.87v-2h.547a6.578,6.578,0,0,1,2.688.407Z" transform="translate(-135.079 -257.568)" fill="#253d1b" fill-rule="evenodd"/>
    <path id="Path_57" data-name="Path 57" d="M199.006,326.1a1.66,1.66,0,0,0,1.353-1.575c0-1.012-.954-1.609-2.605-1.614a11.57,11.57,0,0,0-2.853.419l.1.453c.229-.061.549-.131.812-.19v5.5h1.135v-5.678c1.32-.145,2.226.145,2.226,1.3,0,.339-.21,1.181-1.528,1.285,0,0,1.616,2.548,1.811,2.838.167.244.487.258.842.258h.753c-.617-.863-2.045-2.994-2.045-2.994" transform="translate(-155.174 -257.093)" fill="#253d1b" fill-rule="evenodd"/>
    <path id="Path_58" data-name="Path 58" d="M76.358,329.041H75.073a3.752,3.752,0,0,0-3.6-2.123l-1.031,2.123h-.8l3.168-6.158h.4Zm-4.642-2.636a3.993,3.993,0,0,1,2.429.7l-1.382-2.832Z" transform="translate(-55.442 -257.071)" fill="#253d1b" fill-rule="evenodd"/>
    <path id="Path_59" data-name="Path 59" d="M422.775,323.366v2.413c-.362.045-.751.079-1.118.1h-.769c-.367-.025-.758-.059-1.118-.1v-2.413h-1.124v6.09h1.124V326.6c.36-.05.751-.079,1.118-.1h.769c.367.025.756.054,1.118.1v2.854H423.9v-6.09Z" transform="translate(-333.316 -257.456)" fill="#253d1b" fill-rule="evenodd"/>
    <path id="Path_60" data-name="Path 60" d="M141.547,323.366v2.413c-.36.045-.75.079-1.114.1h-.771c-.365-.025-.755-.059-1.116-.1v-2.413h-1.129v6.09h1.129V326.6c.361-.05.751-.079,1.116-.1h.771c.364.025.753.054,1.114.1v2.854h1.128v-6.09Z" transform="translate(-109.408 -257.456)" fill="#253d1b" fill-rule="evenodd"/>
    <path id="Path_61" data-name="Path 61" d="M44.425,323.366v2.413c-.363.045-.75.079-1.119.1h-.768c-.365-.025-.754-.059-1.119-.1v-2.413H40.294v6.09h1.125V326.6c.365-.05.754-.079,1.119-.1h.768c.369.025.756.054,1.119.1v2.854H45.55v-6.09Z" transform="translate(-32.081 -257.456)" fill="#253d1b" fill-rule="evenodd"/>
    <path id="Path_62" data-name="Path 62" d="M389.4,329.166h-1.287a3.747,3.747,0,0,0-3.6-2.121l-1.039,2.121h-.8l3.166-6.16h.4Zm-4.641-2.634a3.988,3.988,0,0,1,2.426.692L385.8,324.4Z" transform="translate(-304.679 -257.169)" fill="#253d1b" fill-rule="evenodd"/>
    <path id="Path_63" data-name="Path 63" d="M297.982,329.169H296.7a3.752,3.752,0,0,0-3.6-2.123l-1.037,2.123h-.8l3.164-6.163h.407Zm-4.641-2.637a4.019,4.019,0,0,1,2.426.692l-1.383-2.828Z" transform="translate(-231.893 -257.169)" fill="#253d1b" fill-rule="evenodd"/>
    <path id="Path_64" data-name="Path 64" d="M252.093,314.128l-3.2,3.626-3.2-3.626h-1.344V322.1h1.026v-6.081l3.519,4,3.519-4V322.1h1.025v-7.969Z" transform="translate(-194.542 -250.101)" fill="#253d1b" fill-rule="evenodd"/>
    <path id="Path_65" data-name="Path 65" d="M360.439,329.247a23.465,23.465,0,0,1-3.358-2.962,24.3,24.3,0,0,1,3.381-2.96h-1.725l-2.473,2.881v-3.033h-1.154V329.3h1.154v-2.929l2.473,2.877Z" transform="translate(-282.73 -257.302)" fill="#253d1b" fill-rule="evenodd"/>
    <path id="Path_66" data-name="Path 66" d="M331.59,329.247a23.239,23.239,0,0,1-3.354-2.962,24.113,24.113,0,0,1,3.372-2.96H329.89l-2.474,2.881v-3.033h-1.154V329.3h1.154v-2.929l2.474,2.877Z" transform="translate(-259.762 -257.302)" fill="#253d1b" fill-rule="evenodd"/>
    <path id="Path_67" data-name="Path 67" d="M111.906,329.247a23.105,23.105,0,0,1-3.357-2.962,23.77,23.77,0,0,1,3.378-2.96H110.2l-2.47,2.881v-3.033h-1.155V329.3h1.155v-2.929l2.47,2.877Z" transform="translate(-84.853 -257.302)" fill="#253d1b" fill-rule="evenodd"/>
  </g>
</svg>
