<svg id="Group_412" data-name="Group 412" xmlns="http://www.w3.org/2000/svg" xmlns:xlink="http://www.w3.org/1999/xlink" width="196" height="155.681" viewBox="0 0 196 155.681">
  <defs>
    <clipPath id="clip-path">
      <rect id="Rectangle_1427" data-name="Rectangle 1427" width="196" height="155.681" fill="none"/>
    </clipPath>
  </defs>
  <rect id="Rectangle_1426" data-name="Rectangle 1426" width="3.128" height="21.185" transform="translate(170.975 105.763)" fill="#fff"/>
  <path id="Path_73" data-name="Path 73" d="M550.957,314.923l-1.824-2.11-1.831,2.11L549.133,317Z" transform="translate(-362.302 -207.076)" fill="#fff" fill-rule="evenodd"/>
  <path id="Path_74" data-name="Path 74" d="M472.616,314.923l-1.829-2.11-1.831,2.11L470.788,317Z" transform="translate(-310.44 -207.076)" fill="#fff" fill-rule="evenodd"/>
  <path id="Path_75" data-name="Path 75" d="M20.067,314.923l-1.829-2.11-1.833,2.11L18.239,317Z" transform="translate(-10.86 -207.076)" fill="#fff" fill-rule="evenodd"/>
  <path id="Path_76" data-name="Path 76" d="M7.5,314.923l-1.829-2.11-1.835,2.11L5.673,317Z" transform="translate(-2.541 -207.076)" fill="#fff" fill-rule="evenodd"/>
  <g id="Group_411" data-name="Group 411">
    <g id="Group_410" data-name="Group 410" clip-path="url(#clip-path)">
      <path id="Path_77" data-name="Path 77" d="M99.817,326.577a6.3,6.3,0,0,0-.894-3.655,5.242,5.242,0,0,0-4.617-2.119,5.62,5.62,0,0,0-4.674,2.119,7,7,0,0,0-.893,3.7v5.029H71.03c.981-.674,2.107-1.919,2.107-4.676,0-4.243-3.1-5.927-6.825-5.927H31.672l5.534-8.16H33.924L26.57,323.732H66.889c2.36,0,4.522,1.036,4.522,3.712,0,1.895-.816,3.954-4.325,4.21l-53.93,0V318.518C6.261,319.462.786,325.1.786,334.357h88.34a6.521,6.521,0,0,0,.507,1.014,5.321,5.321,0,0,0,4.674,2.114,5.254,5.254,0,0,0,4.617-2.114,6.645,6.645,0,0,0,.894-3.961Zm-89.793,5.082H3.55v-.494c0-6.039,4.292-9.723,6.474-10.373Zm86.656.044a4.56,4.56,0,0,1-.338,2.053,2.435,2.435,0,0,1-4.09,0A4.487,4.487,0,0,1,91.9,331.7V326.59a4.471,4.471,0,0,1,.349-2.05,2.43,2.43,0,0,1,4.09,0,4.543,4.543,0,0,1,.338,2.05Z" transform="translate(-0.52 -207.128)" fill="#fff" fill-rule="evenodd"/>
      <path id="Path_78" data-name="Path 78" d="M544,342.848c0,2.367-.492,4.152-1.53,5.245-.9.962-1.943,1.412-3.983,1.412H525.837v-2.562h13.014a3.635,3.635,0,0,0,2.744-.83,4.441,4.441,0,0,0,1.12-3.265,4.381,4.381,0,0,0-1.12-3.245,3.6,3.6,0,0,0-2.744-.821h-8.917v-2.588h8.555c2.04,0,3.08.454,3.983,1.42,1.038,1.1,1.53,2.891,1.53,5.234" transform="translate(-348.093 -222.554)" fill="#fff" fill-rule="evenodd"/>
      <path id="Path_79" data-name="Path 79" d="M376.99,337.613c-.907-.966-1.947-1.425-3.982-1.425h-8.193v2.588h8.555a3.618,3.618,0,0,1,2.738.819,5.272,5.272,0,0,1,0,6.514,3.175,3.175,0,0,1-2.738.712l-49.682-.009v-9.019h-3.14v14.961c0,.977.176,3.708-1.532,4v1.445a5.465,5.465,0,0,0,3.91-2.588c.6-1.271.755-2.125.755-4.92.007-.353.007-1.185.007-1.185h49.32c2.035,0,3.076-.45,3.982-1.414,1.036-1.093,1.537-2.876,1.537-5.242,0-2.342-.5-4.134-1.537-5.231" transform="translate(-211.182 -222.55)" fill="#fff" fill-rule="evenodd"/>
      <path id="Path_80" data-name="Path 80" d="M17.326,409.35H.916v2.74a20.786,20.786,0,0,1,6.6-1.082V426.6h3.21V411.008a20.717,20.717,0,0,1,6.6,1.082Z" transform="translate(-0.606 -270.981)" fill="#fff" fill-rule="evenodd"/>
      <path id="Path_81" data-name="Path 81" d="M230.687,421.754h-9.4v13.119h9.778v-2.1a15.429,15.429,0,0,1-5.679.856h-1.7v-5.139H229.9v-1.216h-6.211v-4.323h1.185c1.609,0,4.38.077,5.818.883Z" transform="translate(-146.486 -279.193)" fill="#fff" fill-rule="evenodd"/>
      <path id="Path_82" data-name="Path 82" d="M263.117,427.87a3.591,3.591,0,0,0,2.926-3.4c0-2.2-2.066-3.488-5.64-3.5a25.2,25.2,0,0,0-6.171.907l.211.984c.5-.127,1.19-.281,1.76-.406v11.894h2.454V422.068c2.856-.314,4.817.314,4.817,2.8,0,.735-.455,2.553-3.307,2.779,0,0,3.5,5.514,3.921,6.147.36.527,1.049.549,1.82.549h1.631c-1.335-1.862-4.423-6.477-4.423-6.477" transform="translate(-168.296 -278.672)" fill="#fff" fill-rule="evenodd"/>
      <path id="Path_83" data-name="Path 83" d="M105.3,434.266h-2.781a8.123,8.123,0,0,0-7.8-4.593l-2.232,4.593H90.749L97.6,420.943h.876Zm-10.043-5.7a8.625,8.625,0,0,1,5.254,1.5l-2.99-6.125Z" transform="translate(-60.074 -278.656)" fill="#fff" fill-rule="evenodd"/>
      <path id="Path_84" data-name="Path 84" d="M555.143,421.579v5.227c-.786.1-1.629.167-2.424.217h-1.66c-.8-.051-1.642-.121-2.421-.217v-5.227H546.2v13.172h2.435v-6.173c.779-.1,1.622-.169,2.421-.222h1.66c.795.053,1.638.121,2.424.222v6.173h2.432V421.579Z" transform="translate(-361.576 -279.077)" fill="#fff" fill-rule="evenodd"/>
      <path id="Path_85" data-name="Path 85" d="M188.143,421.579v5.227c-.779.1-1.625.167-2.41.217h-1.666c-.795-.051-1.637-.121-2.419-.217v-5.227h-2.441v13.172h2.441v-6.173c.782-.1,1.625-.169,2.419-.222h1.666c.786.053,1.631.121,2.41.222v6.173h2.439V421.579Z" transform="translate(-118.631 -279.077)" fill="#fff" fill-rule="evenodd"/>
      <path id="Path_86" data-name="Path 86" d="M61.4,421.579v5.227c-.784.1-1.627.167-2.421.217H57.315c-.791-.051-1.633-.121-2.424-.217v-5.227H52.457v13.172h2.435v-6.173c.79-.1,1.633-.169,2.424-.222h1.662c.794.053,1.638.121,2.421.222v6.173h2.43V421.579Z" transform="translate(-34.725 -279.077)" fill="#fff" fill-rule="evenodd"/>
      <path id="Path_87" data-name="Path 87" d="M513.817,434.441h-2.784a8.124,8.124,0,0,0-7.789-4.59L501,434.441h-1.732l6.854-13.323h.869Zm-10.05-5.695a8.622,8.622,0,0,1,5.256,1.493l-2.99-6.116Z" transform="translate(-330.505 -278.772)" fill="#fff" fill-rule="evenodd"/>
      <path id="Path_88" data-name="Path 88" d="M394.516,434.448h-2.779a8.131,8.131,0,0,0-7.8-4.593l-2.242,4.593h-1.734l6.854-13.33h.876Zm-10.048-5.7a8.679,8.679,0,0,1,5.249,1.493l-2.988-6.116Z" transform="translate(-251.526 -278.772)" fill="#fff" fill-rule="evenodd"/>
      <path id="Path_89" data-name="Path 89" d="M335.515,409.518l-6.926,7.849-6.928-7.849h-2.911v17.244h2.222V413.6l7.618,8.663L336.2,413.6v13.161h2.217V409.518Z" transform="translate(-211.005 -271.093)" fill="#fff" fill-rule="evenodd"/>
      <path id="Path_90" data-name="Path 90" d="M474.834,434.465c-1.488-.775-6.07-5.069-7.271-6.411,1.2-1.335,5.833-5.638,7.32-6.41h-3.734l-5.35,6.237v-6.568h-2.5V434.57h2.5v-6.336l5.35,6.23Z" transform="translate(-306.695 -278.901)" fill="#fff" fill-rule="evenodd"/>
      <path id="Path_91" data-name="Path 91" d="M437.176,434.465c-1.482-.775-6.065-5.069-7.262-6.411,1.2-1.335,5.826-5.638,7.306-6.41h-3.726l-5.35,6.237v-6.568h-2.5V434.57h2.5v-6.336l5.35,6.23Z" transform="translate(-281.768 -278.901)" fill="#fff" fill-rule="evenodd"/>
      <path id="Path_92" data-name="Path 92" d="M150.491,434.465c-1.489-.775-6.075-5.069-7.264-6.411,1.19-1.335,5.822-5.638,7.306-6.41H146.8l-5.345,6.237v-6.568h-2.5V434.57h2.5v-6.336l5.345,6.23Z" transform="translate(-91.983 -278.901)" fill="#fff" fill-rule="evenodd"/>
      <path id="Path_93" data-name="Path 93" d="M144.416,24c8.3,1.868,30.934,9.39,35.79,36.366.017.085,1.745,8.592,3.4,18.052,1.822,10.441,3.3,17.89,4.808,22.074-8.015-1.434-29.521-7.778-35.257-34.9-.018-.088-1.833-8.955-3.166-17.025-.149-.891-.3-1.822-.452-2.779-1.1-6.854-2.43-15.156-5.126-21.784m-2.885-2.237c3.962,7.556,5.442,18.879,6.8,27.077s3.179,17.086,3.179,17.086c7.3,34.539,39.79,36.648,39.79,36.648-2.127-2.577-4.355-14.86-6.028-24.447s-3.412-18.1-3.412-18.1c-6.232-34.613-40.328-38.266-40.328-38.266" transform="translate(-93.691 -14.403)" fill="#fff"/>
      <path id="Path_94" data-name="Path 94" d="M96.9,53.249c8.988.327,32.1,3.811,43.109,29.935.037.079,3.622,8.087,7.148,17,3.747,9.5,6.726,16.572,9.069,20.471-8.3-.193-31.244-2.983-41.48-26.9-.038-.083-3.6-8.4-6.536-16.037L107.9,76.9c-2.648-6.887-6.476-16.851-10.994-23.65M95.35,51.535c-1.126,0-1.756.051-1.756.051,5.4,6.6,10.061,18.989,13.045,26.743s6.56,16.1,6.56,16.1c11.073,25.863,36.273,27.931,44.042,27.931,1.478,0,2.325-.074,2.325-.074-2.6-2.094-7.269-13.663-10.838-22.715S141.551,82.5,141.551,82.5c-12.208-28.978-39.083-30.961-46.2-30.961" transform="translate(-61.957 -34.115)" fill="#fff"/>
      <path id="Path_95" data-name="Path 95" d="M68.64,81.336c10.287,0,29.47,3.159,42.4,24.379.048.072,4.878,7.379,9.875,15.562,5.794,9.506,9.7,15.35,12.408,18.485a49.75,49.75,0,0,1-5.464.3c-11.33,0-27.406-3.486-39.643-20.092-.053-.07-5.264-7.209-9.436-14.188-.724-1.212-1.53-2.606-2.4-4.112C72.7,95.311,67.863,86.947,63.06,81.643a49.927,49.927,0,0,1,5.58-.307m0-1.686a43.764,43.764,0,0,0-9.13.849c6.454,5.58,13.565,19.014,17.828,26.144s9.521,14.32,9.521,14.32a49.629,49.629,0,0,0,41,20.781,43.683,43.683,0,0,0,9.139-.852c-2.927-1.62-9.578-12.182-14.643-20.491s-9.91-15.617-9.91-15.617C99.294,83.2,79.94,79.65,68.64,79.65" transform="translate(-39.394 -52.727)" fill="#fff"/>
      <path id="Path_96" data-name="Path 96" d="M42.579,118.44c10.392,0,25.516,3.073,38.6,17.771.059.062,6.164,6.34,12.6,13.458a138.577,138.577,0,0,0,16.12,15.338,52.623,52.623,0,0,1-15.009,2.2c-12.552,0-23.74-4.48-33.331-13.385A122.423,122.423,0,0,1,49.5,142.275c-.634-.716-1.344-1.524-2.114-2.4-5.293-6.035-12.915-14.719-19.251-19.532a55.985,55.985,0,0,1,14.445-1.9m0-1.686a53.806,53.806,0,0,0-18.263,3.036c7.381,4.285,18.408,17.391,23.922,23.6a122.735,122.735,0,0,0,12.257,11.732,49.422,49.422,0,0,0,34.4,13.767,51.138,51.138,0,0,0,18.812-3.438c-3.126-1.335-12.149-9.7-18.671-16.917s-12.643-13.5-12.643-13.5c-13.119-14.735-28.275-18.28-39.812-18.28" transform="translate(-16.097 -77.289)" fill="#fff"/>
      <path id="Path_97" data-name="Path 97" d="M68.556,2.59C76.176,5.622,96.614,16.4,95.624,44.552c0,.086-.105,8.77-.476,18.362-.478,12-.564,20.5.426,24.5a51.95,51.95,0,0,1-24.566,6.4,48.356,48.356,0,0,1-26.75-8.239A122.228,122.228,0,0,1,30.4,76.259c-6.432-5.137-18.419-13.745-26.59-17.767a51.285,51.285,0,0,1,22.078-5.027c11.907,0,23.516,4.14,34.5,12.311,0,0,16.463,12.382,23.255,14.932C66.134,64.13,68.086,43.957,68.086,43.957c0-.09.092-9.139.487-17.308.071-1.449.167-2.95.264-4.487.4-6.268.845-13.253-.281-19.571M66.247,0c2.283,8.224,1.045,18.269.643,26.568s-.49,17.374-.49,17.374c-.246,15.589,5.394,25.909,11.94,32.638C71.519,71.905,61.4,64.419,61.4,64.419,48.344,54.714,36.021,51.779,25.888,51.779A50.545,50.545,0,0,0,0,58.659c8,2.966,22.86,13.734,29.351,18.917a122.867,122.867,0,0,0,14.077,9.473,49.784,49.784,0,0,0,27.579,8.458,52.373,52.373,0,0,0,26.6-7.341C96.074,85.2,96.445,72.7,96.832,62.981s.478-18.41.478-18.41C98.561,8.992,66.247,0,66.247,0" transform="translate(-0.001 0)" fill="#fff"/>
      <path id="Path_98" data-name="Path 98" d="M336.18,24c-2.7,6.628-4.026,14.93-5.126,21.784-.154.957-.3,1.888-.452,2.779-1.332,8.07-3.148,16.937-3.166,17.025-5.737,27.125-27.242,33.47-35.257,34.9,1.506-4.184,2.986-11.633,4.808-22.074,1.657-9.459,3.385-17.966,3.4-18.052,4.856-26.976,27.485-34.5,35.79-36.366m2.885-2.237s-34.1,3.653-40.328,38.266c0,0-1.73,8.507-3.411,18.1s-3.9,21.87-6.028,24.447c0,0,32.486-2.11,39.79-36.648,0,0,1.824-8.889,3.179-17.086s2.836-19.521,6.8-27.077" transform="translate(-191.509 -14.403)" fill="#fff"/>
      <path id="Path_99" data-name="Path 99" d="M351.959,53.249c-4.518,6.8-8.347,16.763-10.994,23.65l-.316.823c-2.933,7.635-6.5,15.953-6.535,16.037-10.237,23.914-33.176,26.7-41.48,26.9,2.342-3.9,5.321-10.968,9.069-20.471,3.526-8.913,7.111-16.922,7.148-17,11.005-26.124,34.122-29.608,43.11-29.935m1.552-1.714c-7.117,0-33.992,1.982-46.2,30.961,0,0-3.6,8.015-7.177,17.071S291.9,120.187,289.3,122.281c0,0,.847.074,2.325.074,7.769,0,32.969-2.068,44.042-27.931,0,0,3.581-8.34,6.56-16.1s7.64-20.142,13.045-26.743c0,0-.63-.051-1.756-.051" transform="translate(-191.508 -34.115)" fill="#fff"/>
      <path id="Path_100" data-name="Path 100" d="M357.659,81.336a49.921,49.921,0,0,1,5.58.307c-4.8,5.3-9.644,13.668-13.323,20.023-.872,1.506-1.678,2.9-2.4,4.112-4.171,6.979-9.383,14.118-9.435,14.188-12.237,16.605-28.313,20.092-39.643,20.092a49.762,49.762,0,0,1-5.464-.3c2.709-3.135,6.615-8.978,12.408-18.485,5-8.184,9.826-15.49,9.875-15.562,12.935-21.22,32.117-24.379,42.4-24.379m0-1.686c-11.3,0-30.653,3.548-43.809,25.134,0,0-4.836,7.306-9.91,15.617s-11.716,18.871-14.643,20.491a43.679,43.679,0,0,0,9.139.852,49.628,49.628,0,0,0,41-20.781s5.26-7.188,9.521-14.32S360.335,86.08,366.789,80.5a43.759,43.759,0,0,0-9.13-.849" transform="translate(-191.509 -52.727)" fill="#fff"/>
      <path id="Path_101" data-name="Path 101" d="M360.423,118.44a55.988,55.988,0,0,1,14.445,1.9c-6.336,4.812-13.958,13.5-19.251,19.532-.77.876-1.48,1.684-2.114,2.4a122.441,122.441,0,0,1-12.064,11.547c-9.591,8.9-20.778,13.385-33.331,13.385a52.617,52.617,0,0,1-15.009-2.2,138.524,138.524,0,0,0,16.119-15.338c6.435-7.117,12.54-13.4,12.6-13.458,13.088-14.7,28.212-17.771,38.6-17.771m0-1.686c-11.537,0-26.693,3.545-39.812,18.28,0,0-6.112,6.281-12.643,13.5S292.423,164.12,289.3,165.455a51.134,51.134,0,0,0,18.811,3.438,49.421,49.421,0,0,0,34.4-13.767,122.755,122.755,0,0,0,12.257-11.732c5.515-6.213,16.541-19.319,23.922-23.6a53.808,53.808,0,0,0-18.263-3.036" transform="translate(-191.509 -77.289)" fill="#fff"/>
      <path id="Path_102" data-name="Path 102" d="M318.349,2.59c-1.126,6.318-.68,13.3-.281,19.571.1,1.537.193,3.038.263,4.487.4,8.169.487,17.218.487,17.308,0,0,1.952,20.173-15.565,36.752,6.793-2.551,23.255-14.932,23.255-14.932,10.987-8.171,22.6-12.311,34.5-12.311a51.285,51.285,0,0,1,22.078,5.027c-8.171,4.022-20.158,12.63-26.59,17.767a122.194,122.194,0,0,1-13.854,9.323,48.357,48.357,0,0,1-26.75,8.239,51.954,51.954,0,0,1-24.566-6.4c.99-4,.9-12.5.426-24.5-.371-9.591-.476-18.276-.476-18.362C290.291,16.4,310.73,5.622,318.349,2.59M320.659,0S288.344,8.992,289.6,44.571c0,0,.1,8.678.479,18.41s.757,22.217-.777,25.185a52.375,52.375,0,0,0,26.6,7.341,49.783,49.783,0,0,0,27.579-8.458,122.834,122.834,0,0,0,14.077-9.473c6.492-5.184,21.347-15.952,29.351-18.917a50.546,50.546,0,0,0-25.887-6.88c-10.134,0-22.456,2.935-35.511,12.641,0,0-10.12,7.486-16.941,12.16,6.546-6.729,12.186-17.049,11.94-32.638,0,0-.088-9.075-.49-17.374S318.376,8.224,320.659,0" transform="translate(-191.509)" fill="#fff"/>
    </g>
  </g>
</svg>
