<?xml version="1.0" encoding="UTF-8"?><svg id="Layer_2" xmlns="http://www.w3.org/2000/svg" viewBox="0 0 168.96 169.6"><defs><style>.cls-1{fill:#447638;}</style></defs><g id="Layer_1-2"><g id="towers"><path class="cls-1" d="M19.74,111.58h14.91v-11.39h-14.91v11.39h0Zm27.83,34.67v14.83h7.3v-40.98H19.74v40.98h7.31v-14.83c0-13.57,20.52-13.57,20.52,0h0Zm38.81-22.14c4.68,0,8.47,3.79,8.47,8.47,0,2.25-.88,4.3-2.31,5.81,1.43,1.52,2.31,3.56,2.31,5.81,0,3.67-2.35,6.9-5.81,8.04v8.83h16.52V36.35h23.42v-9.47h5.32v9.47h23.42v124.73h11.23v8.51H0v-8.51H11.23V0H63.39V161.08h20.33v-8.83c-3.46-1.15-5.81-4.38-5.81-8.04,0-2.25,.88-4.3,2.31-5.81-1.43-1.52-2.31-3.56-2.31-5.81,0-4.68,3.79-8.47,8.47-8.47h0Zm0,16.95c-1.74,0-3.15,1.41-3.15,3.15s1.41,3.15,3.15,3.15,3.15-1.41,3.15-3.15-1.42-3.15-3.15-3.15h0Zm0-11.62c-1.74,0-3.15,1.41-3.15,3.15s1.41,3.15,3.15,3.15,3.15-1.41,3.15-3.15-1.42-3.15-3.15-3.15h0Zm27.69,31.65h7.31v-14.83c0-13.57,20.52-13.57,20.52,0v14.83h7.3v-40.98h-35.13v40.98h0Zm0-66.2h14.91v-12.87h-14.91v12.87h0Zm20.23,0h14.9v-12.87h-14.9v12.87h0Zm14.9,5.32h-14.9v11.39h14.9v-11.39h0Zm-20.23,0h-14.91v11.39h14.91v-11.39h0Zm-109.24-5.32h14.91v-12.87h-14.91v12.87h0Zm0-18.19h14.91v-12.87h-14.91v12.87h0Zm0-18.19h14.91v-12.87h-14.91v12.87h0Zm0-18.19h14.91v-12.87h-14.91v12.87h0Zm0-18.19h14.91V8.51h-14.91v13.62h0Zm20.23-13.62v13.62h14.9V8.51h-14.9Zm14.9,18.94h-14.9v12.87h14.9v-12.87h0Zm0,18.19h-14.9v12.87h14.9v-12.87h0Zm0,18.19h-14.9v12.87h14.9v-12.87h0Zm0,18.19h-14.9v12.87h14.9v-12.87h0Zm0,18.19h-14.9v11.39h14.9v-11.39h0Zm59.2-23.51h14.91v-12.87h-14.91v12.87h0Zm20.23,0h14.9v-12.87h-14.9v12.87h0Zm-20.23-18.19h14.91v-13.64h-14.91v13.64h0Zm20.23,0h14.9v-13.64h-14.9v13.64h0Z"/></g></g></svg>