<?xml version="1.0" encoding="UTF-8"?><svg id="Layer_2" xmlns="http://www.w3.org/2000/svg" viewBox="0 0 108.98 199.19"><defs><style>.cls-1{fill:#8dc3c1;}</style></defs><g id="Layer_1-2"><g id="walking"><path class="cls-1" d="M65.06,41.21c11.36,0,20.6-9.24,20.6-20.6S76.42,0,65.06,0s-20.6,9.24-20.6,20.6,9.24,20.6,20.6,20.6Zm0-36c8.49,0,15.4,6.91,15.4,15.4s-6.91,15.4-15.4,15.4-15.4-6.91-15.4-15.4,6.91-15.4,15.4-15.4Z"/><path class="cls-1" d="M66.85,88.64c3.65,6.39,3.85,6.66,3.92,6.78,.01,.02,1.39,1.93,3.25,3.1,5.3,3.36,21.2,12.23,21.85,12.59,4.3,2.48,10.15,.64,12.28-3.82,1.96-4.1,.34-9.13-3.69-11.46h0l-18.41-10.61c-.91-.53-1.67-1.28-2.15-2.13l-10.38-19.38c-.65-1.12-1.07-2.16-1.33-3.34l-2.65-9.53c-.54-2.56-2.53-4.57-5.08-5.14l-13.22-2.91c-.61-.14-1.27-.2-1.77-.18-1.06-.03-2.09,.14-3.07,.54l-9.7,3.97s-.54,.25-.58,.27c-11.98,5.73-12.26,5.9-12.47,6.03-.56,.34-2.24,1.54-3.33,3.02-3.73,5.05-13.72,20.27-14.13,20.88-.86,1.27-1.37,2.75-1.48,4.27-.24,3.39,1.44,6.56,4.41,8.25,3.95,2.25,9.08,.99,11.69-2.86l11.9-17.6c.59-.87,1.4-1.57,2.28-1.99l2.84-1.27-6.95,31.56c-.79,3.61-1.04,9.08,.26,12.58,.8,2.13,1.98,4.45,3.58,6.97l.39,.62-13.4,33.64c-.06,.16-.15,.32-.26,.46L2.19,177.74c-1.76,2.35-2.5,5.25-2.08,8.16,.42,2.91,1.95,5.48,4.3,7.24,1.92,1.43,4.19,2.19,6.58,2.19,3.45,0,6.75-1.65,8.81-4.41l20.3-27.16s.59-.88,.63-.94c.17-.28,.32-.57,.45-.83,.06-.13,.28-.62,.33-.75l7.94-20.41,32.64,52.17c2.44,3.89,6.63,6.22,11.23,6.22,2.48,0,4.9-.7,7.01-2.02,6.19-3.87,8.07-12.05,4.2-18.24L62.87,112.35c-.59-.94-.78-2.06-.54-3.14l4.53-20.56Zm-30.18,70.66l-21.03,28.48c-1.85,2.48-5.61,3.04-8.1,1.17-1.24-.92-2.04-2.28-2.26-3.81-.22-1.53,.17-3.06,1.09-4.29l19.25-25.76c.38-.51,.69-1.06,.93-1.65l11.99-30.1,7.48,11.95-9.34,24Zm21.79-44.2l41.66,66.59c2.35,3.75,1.2,8.72-2.55,11.06-3.66,2.29-8.79,1.08-11.07-2.55L39.06,114.38c-1.68-2.65-2.58-4.69-3.04-5.92-.76-2.05-.79-6.28-.03-9.71l8.04-36.52c.21-.96-.14-1.96-.9-2.58-.47-.39-1.06-.59-1.65-.59-.36,0-.72,.07-1.06,.23l-7.63,3.4c-1.77,.85-3.29,2.17-4.4,3.8l-11.9,17.6c-1.09,1.61-3.2,2.17-4.8,1.26-1.21-.69-1.89-1.97-1.79-3.35,.04-.61,.25-1.21,.62-1.76,.1-.16,10.34-15.74,13.98-20.68,.53-.72,1.56-1.49,1.77-1.62,.78-.42,9.59-4.63,12.4-5.98l9.7-3.97c.29-.12,.58-.17,1.06-.16,.26-.02,.48,.02,.69,.06l13.22,2.91c.56,.12,.99,.56,1.15,1.28l2.65,9.53c.33,1.58,.95,3.13,1.85,4.67l10.36,19.35c.98,1.71,2.4,3.13,4.11,4.11l18.41,10.61c1.69,.98,2.39,3.04,1.6,4.7-.87,1.81-3.16,2.6-5.01,1.54-.16-.09-16.45-9.18-21.63-12.46-.76-.48-1.59-1.45-1.74-1.65-.55-.87-7.04-12.28-7.04-12.28-.53-.94-1.59-1.44-2.65-1.29-1.07,.16-1.92,.96-2.15,2.02l-5.98,27.17c-.53,2.42-.1,4.92,1.21,7.02Z"/></g></g></svg>